<svg version="1" xmlns="http://www.w3.org/2000/svg" width="21.333" height="21.333" viewBox="0 0 16 16"><path d="M.006 1.082a1.73 1.73 0 0 1 .074.13c0 .002.002.004.003.004a2.14 2.14 0 0 0 .055.095 17.484 17.484 0 0 1 .138.238.82.82 0 0 0 .036.063l.162.28.008.015a20.374 20.374 0 0 1 .152.262l.043.077a.41.41 0 0 0 .024.04.445.445 0 0 1 .045.077l.012.021a6.881 6.881 0 0 0 .125.218l.02.033.034.06.121.21.01.018a.152.152 0 0 1 .01.015l.015.027.021.037.057.099.042.072.028.048a.433.433 0 0 1 .02.034l.03.053.095.164.105.182.064.112a5.77 5.77 0 0 0 .046.079l.015.026.028.049a.228.228 0 0 0 .01.018c.002.001.025.042.053.09a41.95 41.95 0 0 0 .068.117l.082.143a35.282 35.282 0 0 1 .202.35 10.839 10.839 0 0 0 .131.228l.048.083a1.08 1.08 0 0 0 .036.06c.003.008.015.028.025.045l.061.106.042.072.04.07.014.022a54.195 54.195 0 0 0 .152.264l.023.04a.325.325 0 0 1 .015.029l.01.015.01.016c0 .001.023.043.032.056l.013.024.084.146a15.031 15.031 0 0 1 .088.15l.036.064.054.094.013.021.033.058.008.014.047.082.078.134.042.073a46.396 46.396 0 0 0 .17.294l.008.015a1.384 1.384 0 0 0 .052.09 14.381 14.381 0 0 1 .185.321 8.6 8.6 0 0 1 .165.285 8.6 8.6 0 0 1 .383.663l.09.157a.27.27 0 0 0 .019.03s.011.022.026.047l.108.187.013.022a13.338 13.338 0 0 1 .107.186l.024.041a2.593 2.593 0 0 1 .051.088.995.995 0 0 1 .03.053l.1.171a1.593 1.593 0 0 0 .04.068l.077.136.083.144a31.478 31.478 0 0 0 .192.333l.048.083.035.06.047.082.048.083a23.784 23.784 0 0 0 .215.371 2.69 2.69 0 0 0 .056.098l.089.154.012.02a39.436 39.436 0 0 0 .225.392 21.959 21.959 0 0 1 .189.326l.044.076.042.074c.008.013.1.17.108.186l.01.018.086.148.009.015c0 .003.024.043.051.09a1.934 1.934 0 0 1 .052.09 2.75 2.75 0 0 0 .061.106c.059.1.065.11.077.133l.049.084c.022.04.045.078.05.086a12.013 12.013 0 0 0 .154.266l.008.016a5.277 5.277 0 0 0 .098.17l.02.035.026.044.05.087.122.211.09.155.042.074.08.138a24.21 24.21 0 0 0 .146.253l.038.065.018.032a.153.153 0 0 1 .01.02l.007.009a1.392 1.392 0 0 0 .048.083 3.82 3.82 0 0 1 .058.1l.019.033.013.023a6.243 6.243 0 0 0 .047.082l.011.02a.539.539 0 0 1 .031.053l.006.01.013.023a.293.293 0 0 1 .013.022l.013.023.023.04a7.317 7.317 0 0 0 .066.114c.009.016.012.017.016.006a4.137 4.137 0 0 0 .021-.037l.067-.115.069-.119a.923.923 0 0 1 .032-.056l.013-.022a6.455 6.455 0 0 1 .138-.239.325.325 0 0 0 .016-.027l.012-.022a.293.293 0 0 0 .013-.022l.014-.025.095-.164.029-.05a7.528 7.528 0 0 0 .053-.091 4.337 4.337 0 0 1 .107-.187 257.571 257.571 0 0 0 .43-.743c.002-.006.008-.016.011-.021l.044-.076.079-.136.072-.125a10.455 10.455 0 0 1 .08-.14l.122-.209.012-.022.065-.112a2.375 2.375 0 0 0 .06-.106c.003 0 .004-.001.004-.003l.006-.012a12.176 12.176 0 0 1 .097-.167l.079-.138a2.868 2.868 0 0 0 .077-.134l.07-.122a11.06 11.06 0 0 1 .127-.219 1.19 1.19 0 0 1 .037-.066c0-.002.001-.003.002-.003.002 0 .005-.004.006-.009a6.409 6.409 0 0 0 .118-.205l.021-.035a26.29 26.29 0 0 0 .202-.35 15.36 15.36 0 0 1 .306-.53l.03-.052.028-.05.067-.114.067-.117a40.462 40.462 0 0 1 .18-.312 187.535 187.535 0 0 0 .346-.599l.128-.22a3.125 3.125 0 0 0 .06-.104 4.75 4.75 0 0 1 .084-.145l.018-.034a6.955 6.955 0 0 0 .106-.183.177.177 0 0 1 .01-.018.31.31 0 0 0 .009-.014l.025-.043a5.342 5.342 0 0 1 .079-.138l.208-.36.054-.094.053-.092.009-.015a.681.681 0 0 0 .017-.03l.022-.037.059-.103.058-.1.012-.022.039-.067.037-.064.011-.019.132-.228.008-.014a13.582 13.582 0 0 1 .107-.185 8.177 8.177 0 0 0 .1-.174l.01-.018.02-.034.026-.045a1.515 1.515 0 0 0 .028-.048l.087-.15.079-.138a.88.88 0 0 1 .026-.043l.006-.011a7.803 7.803 0 0 1 .122-.213 3.98 3.98 0 0 1 .056-.096l.051-.09.065-.111.014-.024.088-.152.03-.053.029-.05.07-.122.014-.023a9.504 9.504 0 0 1 .086-.15l.09-.154.012-.023.046-.078.043-.075.04-.07.063-.108.032-.056.066-.114c.007-.013.108-.188.114-.196l.032-.056a38.218 38.218 0 0 1 .258-.448l.012-.021.046-.08.036-.062.04-.069a.264.264 0 0 0 .01-.018l.007-.011a8.196 8.196 0 0 0 .13-.227.166.166 0 0 1 .017-.027l.03-.052.088-.153.075-.131.028-.049a.178.178 0 0 1 .019-.03c0-.003.04-.072.053-.093l.008-.014.015-.026.02-.035a49.272 49.272 0 0 1 .193-.335l.166-.287a1.496 1.496 0 0 1 .036-.061 6.4 6.4 0 0 1 .048-.085l.05-.085c.002-.006.013-.024.022-.04l.024-.041a.222.222 0 0 1 .03-.05c0-.003.037-.068.045-.08l.007-.011a2.19 2.19 0 0 1 .034-.061L16 1.074l-3.075-.001-3.078.001-.198.342-.103.18a48.098 48.098 0 0 1-.199.344l-.081.14-.023.04a24.32 24.32 0 0 0-.086.149l-.137.237-.18.312a23.356 23.356 0 0 1-.13.225l-.08.138-.07.123-.065.112c-.042.072-.08.137-.13.226A111.752 111.752 0 0 1 8 4.269a.767.767 0 0 1-.035-.059l-.061-.106-.207-.358-.102-.176-.322-.559a1.439 1.439 0 0 0-.023-.04l-.025-.043a4.884 4.884 0 0 0-.07-.122l-.06-.104a2.148 2.148 0 0 1-.06-.104 2.614 2.614 0 0 0-.037-.062l-.065-.114-.084-.145-.053-.09a25.227 25.227 0 0 0-.113-.197l-.016-.027a13.893 13.893 0 0 0-.16-.278 36.908 36.908 0 0 1-.16-.277l-.125-.217-.047-.082-.015-.025-.007-.012H-.001l.007.01z"/></svg>