<?xml version="1.0" standalone="no"?><!DOCTYPE svg PUBLIC "-//W3C//DTD SVG 1.1//EN" "http://www.w3.org/Graphics/SVG/1.1/DTD/svg11.dtd"><svg class="icon" width="200px" height="200.00px" viewBox="0 0 1024 1024" version="1.1" xmlns="http://www.w3.org/2000/svg"><path fill="#333333" d="M704 128c-74.24 0-145.493333 34.56-192 88.96C465.493333 162.56 394.24 128 320 128 188.373333 128 85.333333 231.04 85.333333 362.666667c0 161.066667 145.066667 292.693333 364.8 492.16L512 910.933333l61.866667-56.106666C793.6 655.36 938.666667 523.733333 938.666667 362.666667c0-131.626667-103.04-234.666667-234.666667-234.666667z m-187.52 663.68l-4.48 4.053333-4.48-4.053333C304.64 607.573333 170.666667 485.973333 170.666667 362.666667c0-85.12 64.213333-149.333333 149.333333-149.333334 65.706667 0 129.706667 42.453333 152.106667 100.693334h79.573333C574.293333 255.786667 638.293333 213.333333 704 213.333333c85.12 0 149.333333 64.213333 149.333333 149.333334 0 123.306667-133.973333 244.906667-336.853333 429.013333z"  /></svg>