<svg class="icon" width="200px" height="200.00px" viewBox="0 0 1024 1024" version="1.1" xmlns="http://www.w3.org/2000/svg"><path d="M888.921 63.946H131.993c-38.727 0-70.412 31.686-70.412 70.412v756.929c0 38.726 31.685 70.412 70.412 70.412h756.929c38.727 0 70.412-31.686 70.412-70.412V134.358c-0.001-38.725-31.686-70.412-70.413-70.412z m-87.278 811.193c-23.901 2.074-52.149 3.118-79.025 3.118-25.694 0-50.138-0.948-68.357-2.862C501.349 859.356 413.64 771.988 413.64 635.69V341.466c0-42.132 34.15-76.28 76.28-76.28s76.279 34.149 76.279 76.28v65.382h207.046c42.13 0 76.28 34.149 76.28 76.28s-34.15 76.28-76.28 76.28H566.2v76.28c0 28.828 0 77.067 103.986 87.974 24.566 2.576 77.935 2.991 118.251-0.511 42.056-3.479 78.951 27.425 82.596 69.396 3.645 41.973-27.423 78.952-69.39 82.592z" /></svg>